<?xml version="1.0" encoding="UTF-8" standalone="no"?>
<svg
   xmlns:dc="http://purl.org/dc/elements/1.1/"
   xmlns:cc="http://creativecommons.org/ns#"
   xmlns:rdf="http://www.w3.org/1999/02/22-rdf-syntax-ns#"
   xmlns:svg="http://www.w3.org/2000/svg"
   xmlns="http://www.w3.org/2000/svg"
   xmlns:sodipodi="http://sodipodi.sourceforge.net/DTD/sodipodi-0.dtd"
   xmlns:inkscape="http://www.inkscape.org/namespaces/inkscape"
   width="128.0px"
   height="128.0px"
   viewBox="0 0 128.0 128.0"
   version="1.1"
   id="SVGRoot"
   sodipodi:docname="icon-emojis.svg"
   inkscape:version="1.0.1 (3bc2e813f5, 2020-09-07)">
  <defs
     id="defs833" />
  <sodipodi:namedview
     id="base"
     pagecolor="#ffffff"
     bordercolor="#666666"
     borderopacity="1.0"
     inkscape:pageopacity="0.0"
     inkscape:pageshadow="2"
     inkscape:zoom="2.8"
     inkscape:cx="65.346087"
     inkscape:cy="37.434131"
     inkscape:document-units="px"
     inkscape:current-layer="layer1"
     inkscape:document-rotation="0"
     showgrid="true"
     inkscape:window-width="1920"
     inkscape:window-height="1027"
     inkscape:window-x="1352"
     inkscape:window-y="-8"
     inkscape:window-maximized="1">
    <inkscape:grid
       type="xygrid"
       id="grid1403" />
  </sodipodi:namedview>
  <metadata
     id="metadata836">
    <rdf:RDF>
      <cc:Work
         rdf:about="">
        <dc:format>image/svg+xml</dc:format>
        <dc:type
           rdf:resource="http://purl.org/dc/dcmitype/StillImage" />
        <dc:title />
      </cc:Work>
    </rdf:RDF>
  </metadata>
  <g
     inkscape:label="Taso 1"
     inkscape:groupmode="layer"
     id="layer1">
    <g
       aria-label="☺"
       id="text1412"
       style="font-style:normal;font-weight:normal;font-size:187.568px;line-height:1.25;font-family:sans-serif;fill:#ffffff;fill-opacity:1;stroke:none;stroke-width:1.234">
      <path
         d="m 122.38603,64.045783 q 0,24.178687 -17.12657,41.305257 -17.03498,17.03498 -41.213667,17.03498 -24.178686,0 -41.305256,-17.03498 Q 5.6139674,88.22447 5.6139674,64.045783 q 0,-24.270272 17.1265696,-41.305256 17.12657,-17.1265698 41.305256,-17.1265698 24.178687,0 41.213667,17.1265698 17.12657,17.034984 17.12657,41.305256 z m -8.4259,0 q 0,-20.698421 -14.653752,-35.260584 -14.562163,-14.65375 -35.260585,-14.65375 -20.698421,0 -35.35217,14.65375 -14.562164,14.562163 -14.562164,35.260584 0,20.606835 14.562164,35.260585 14.653749,14.562162 35.35217,14.562162 20.698422,0 35.260585,-14.562162 14.653752,-14.65375 14.653752,-35.260585 z M 49.0257,51.95644 q 0,3.022336 -2.198062,5.220398 -2.106477,2.198063 -5.220398,2.198063 -3.022336,0 -5.220399,-2.198063 -2.198062,-2.198062 -2.198062,-5.220398 0,-3.113922 2.198062,-5.220398 2.198063,-2.198063 5.220399,-2.198063 3.113921,0 5.220398,2.198063 2.198062,2.106476 2.198062,5.220398 z m 44.785522,0 q 0,3.022336 -2.198062,5.220398 -2.106477,2.198063 -5.220399,2.198063 -3.022335,0 -5.220398,-2.198063 -2.198062,-2.198062 -2.198062,-5.220398 0,-3.113922 2.198062,-5.220398 2.198063,-2.198063 5.220398,-2.198063 3.113922,0 5.220399,2.198063 2.198062,2.106476 2.198062,5.220398 z M 37.119529,82.8209 42.797857,79.523806 q 7.235288,13.188375 21.247936,13.188375 14.012648,0 21.156351,-13.188375 l 5.769914,3.297094 q -4.579297,8.700663 -11.356656,13.27996 -6.685773,4.5793 -15.569609,4.5793 -8.975421,0 -15.661194,-4.5793 -6.685774,-4.579297 -11.26507,-13.27996 z"
         style="fill:#ffffff;stroke-width:1.234"
         id="path833" />
    </g>
  </g>
</svg>
